<svg viewBox="0 0 1100 260" width="1100" height="260" xmlns="http://www.w3.org/2000/svg" role="img" aria-label="Analytics Vibrant">
  <style><![CDATA[ .t{font:700 18px Segoe UI,Roboto,Arial,sans-serif;fill:#e5e7eb}.a{fill:none;stroke:#06b6d4;stroke-width:3}.grid{stroke:#1f2937;stroke-width:1}.bar{fill:#f59e0b} ]]></style>
  <defs>
  <filter id="cardShadow" x="-30%" y="-30%" width="160%" height="160%">
    <feDropShadow dx="0" dy="3" stdDeviation="6" flood-color="#000" flood-opacity="0.28"/>
  </filter>
  <filter id="glow" x="-50%" y="-50%" width="200%" height="200%">
    <feGaussianBlur stdDeviation="3" result="b"/>
    <feMerge><feMergeNode in="b"/><feMergeNode in="SourceGraphic"/></feMerge>
  </filter>
</defs>
  <rect x="0" y="0" width="1100" height="260" fill="#070b16" rx="18"/>
  <text class="t" x="32" y="40">Mini Analytics</text>
  <!-- line chart -->
  <g transform="translate(32,56)" filter="url(#cardShadow)">
    <rect x="0" y="0" width="500" height="170" rx="16" fill="#0f172a"/>
    <g transform="translate(24,24)">
      <path class="grid" d="M0,0 H452 M0,40 H452 M0,80 H452 M0,120 H452" fill="none"/>
      <path id="line" class="a" d="M0,120 Q80,120 160,120 T320,120 T440,120"/>
      <animate attributeName="d" dur="2.6s" repeatCount="indefinite"
        values="M0,120 Q80,120 160,120 T320,120 T440,120;
                M0,120 Q80,95 160,88 T320,66 T440,44;
                M0,120 Q80,105 160,96 T320,78 T440,56;
                M0,120 Q80,95 160,88 T320,66 T440,44"/>
    </g>
  </g>
  <!-- bar chart -->
  <g transform="translate(568,56)" filter="url(#cardShadow)">
    <rect x="0" y="0" width="500" height="170" rx="16" fill="#0f172a"/>
    <g transform="translate(28,26)">
      <rect class="bar" x="0"   y="130" width="48" height="0"><animate attributeName="height" values="0;70;64;70" dur="1.8s" fill="freeze"/></rect>
      <rect class="bar" x="70"  y="130" width="48" height="0"><animate attributeName="height" values="0;110;100;110" dur="2s" fill="freeze"/></rect>
      <rect class="bar" x="140" y="130" width="48" height="0"><animate attributeName="height" values="0;85;78;85" dur="2.2s" fill="freeze"/></rect>
      <rect class="bar" x="210" y="130" width="48" height="0"><animate attributeName="height" values="0;140;126;140" dur="2.4s" fill="freeze"/></rect>
      <rect class="bar" x="280" y="130" width="48" height="0"><animate attributeName="height" values="0;95;88;95" dur="2.6s" fill="freeze"/></rect>
    </g>
  </g>
</svg>
